<svg width="30" height="34" viewBox="0 0 30 34" fill="none" xmlns="http://www.w3.org/2000/svg">
<path d="M25.1395 30.0331C20.4767 26.5758 15.7231 24.0131 10.3377 24.0058H7.47618C5.68684 24.0058 4.0663 23.1395 2.89767 21.7321C1.723 20.3319 1 18.3902 1 16.2463C1 11.9588 3.89774 8.48672 7.47623 8.48672H10.3439C15.6393 8.48672 20.7722 6.48012 25.0255 2.78442" stroke="white" stroke-width="2" stroke-miterlimit="10" stroke-linecap="round" stroke-linejoin="round"/>
<path d="M28.8518 16.248C28.8518 24.6695 27.6863 31.4967 26.2484 31.4967C24.8107 31.4967 23.645 24.6695 23.645 16.248C23.645 7.8265 24.8107 1 26.2484 1C27.6863 1 28.8518 7.82692 28.8518 16.248" stroke="white" stroke-width="2" stroke-miterlimit="10" stroke-linecap="round" stroke-linejoin="round"/>
<path d="M10.9956 8.47729V24.018" stroke="white" stroke-width="2" stroke-miterlimit="10" stroke-linecap="round" stroke-linejoin="round"/>
<path d="M8.15628 24.0065L9.29503 33.0001H6.06579L4.84302 23.3057" stroke="white" stroke-width="2" stroke-miterlimit="10" stroke-linecap="round" stroke-linejoin="round"/>
<path d="M23.6755 12.3589C25.468 12.3589 26.9213 14.1001 26.9213 16.2478C26.9213 18.3955 25.468 20.1367 23.6755 20.1367" stroke="white" stroke-width="2" stroke-miterlimit="10" stroke-linejoin="round"/>
</svg>
