<svg width="32" height="32" viewBox="0 0 32 32" fill="none" xmlns="http://www.w3.org/2000/svg">
<path d="M31.9998 0.000373333V32H-3.05176e-05V26.335H3.48434V23.2195H-3.05176e-05V17.5567H3.48434V14.4412H-3.05176e-05V8.78083H3.48434V5.66533H-3.05176e-05L0.000394821 0L31.9998 0.000373333ZM17.742 5.58864C15.1878 5.58864 13.1187 7.66011 13.1187 10.2144C13.1187 12.0246 14.1579 13.5911 15.6729 14.3506L9.75253 17.8953H9.68064V22.8946H25.8058V17.8953H25.7316L19.8138 14.3506C21.3288 13.5911 22.3679 12.0245 22.3679 10.2144C22.3679 7.66013 20.2963 5.58864 17.742 5.58864Z" fill="white"/>
</svg>
