<svg width="44" height="44" viewBox="0 0 44 44" fill="none" xmlns="http://www.w3.org/2000/svg">
<path d="M17.3064 31.1433C16.8666 31.5653 16.4339 31.9769 16.0082 32.3884C15.8627 32.5269 15.7351 32.6827 15.5825 32.8104C15.4548 32.9203 15.469 33.0268 15.4975 33.1793C15.5543 33.4951 15.6289 33.8214 15.5933 34.1335C15.5224 34.7436 14.969 35.1478 14.3519 35.1017C13.2737 35.0238 12.291 34.1687 12.0676 33.1117C11.9292 32.4448 12.1811 31.8313 12.6955 31.6113C13.0752 31.448 13.4723 31.4624 13.852 31.5935C14.0966 31.6784 14.2279 31.6254 14.4016 31.4446C14.916 30.902 15.4586 30.3877 15.9589 29.8945C15.3629 28.9793 14.7851 28.0926 14.182 27.1667C14.0012 27.2375 13.7633 27.337 13.5221 27.4328C13.4442 27.4647 13.3659 27.5003 13.2846 27.5248C12.9832 27.6205 12.6815 27.4788 12.5824 27.2019C12.4829 26.9217 12.6143 26.6274 12.9016 26.4997C13.1959 26.3684 13.4939 26.2444 13.7953 26.113C13.6709 25.6625 13.5258 25.2368 13.4334 24.8008C13.3165 24.2511 13.2382 23.6941 13.1569 23.1373C13.132 22.9636 13.0894 22.8783 12.8908 22.8783C12.1816 22.889 11.4686 22.889 10.759 22.882C10.5924 22.882 10.4929 22.921 10.4257 23.0913C10.2839 23.4424 10.0461 23.7226 9.70906 23.9108C9.25851 24.1661 8.67698 24.0811 8.30103 23.7014C7.44631 22.836 7.43555 21.2045 8.27282 20.3175C8.76568 19.7961 9.57473 19.8031 10.0605 20.3494C10.2023 20.509 10.3196 20.6972 10.4187 20.885C10.4862 21.0093 10.55 21.0731 10.6951 21.0731C11.4363 21.0694 12.1778 21.0694 12.9189 21.0731C13.0433 21.0731 13.1353 21.0483 13.1494 20.9065C13.2452 19.8955 13.4652 18.9132 13.7985 17.9341C13.4971 17.8064 13.2095 17.6858 12.9189 17.5615C12.5857 17.416 12.4472 17.1395 12.5641 16.8415C12.681 16.5472 12.9828 16.4158 13.3127 16.5365C13.5647 16.6285 13.813 16.7387 14.0613 16.8449C14.1819 16.8979 14.2387 16.8731 14.3096 16.7491C14.6714 16.1249 15.0437 15.504 15.4304 14.8942C15.5937 14.6352 15.8063 14.4084 16.0513 14.0997C15.7321 13.8087 15.4129 13.5251 15.1008 13.2305C14.8314 12.9751 14.5723 12.709 14.317 12.4429C14.2212 12.3435 14.1433 12.3045 13.9978 12.3613C13.6716 12.489 13.3275 12.5387 12.9761 12.4711C12.4335 12.3683 12.0716 11.9389 12.0505 11.3822C12.0149 10.4529 12.4973 9.80755 13.2069 9.29317C13.5298 9.05899 13.8987 8.92427 14.3066 8.9135C15.2218 8.88864 15.7611 9.50248 15.6188 10.414C15.6081 10.4886 15.6047 10.5736 15.5691 10.6374C15.4129 10.9247 15.5123 11.1162 15.7428 11.3255C16.2783 11.8113 16.782 12.3328 17.3175 12.8542C17.6225 12.62 17.9276 12.3613 18.2575 12.1375C18.6405 11.8785 19.0414 11.648 19.4352 11.4105C19.6055 11.3077 19.8716 11.2509 19.9318 11.1054C19.9885 10.9707 19.829 10.7436 19.7614 10.5591C19.7083 10.4066 19.6337 10.2578 19.5981 10.1015C19.5235 9.80016 19.6831 9.51253 19.9529 9.4346C20.2331 9.35295 20.5133 9.48767 20.6339 9.77159C20.7546 10.0555 20.8752 10.339 20.9958 10.623C21.0028 10.6371 21.0169 10.6441 21.0277 10.6549C21.5243 10.5201 22.0171 10.3639 22.5175 10.2578C23.014 10.1512 23.5213 10.0911 24.025 10.0236C24.1812 10.0024 24.2343 9.94193 24.2343 9.7894C24.2272 9.05531 24.2272 8.32085 24.238 7.59013C24.2417 7.43389 24.1883 7.35966 24.0428 7.29916C23.6917 7.15369 23.4007 6.92655 23.22 6.58622C22.8938 5.97608 23.1205 5.30208 23.7874 4.88717C24.66 4.34459 26.0186 4.40471 26.7884 5.1247C27.331 5.63203 27.3347 6.46556 26.7602 6.93358C26.5828 7.07906 26.3735 7.17815 26.1927 7.31658C26.1252 7.36965 26.0543 7.4654 26.051 7.54705C26.0402 8.30267 26.0369 9.0616 26.0472 9.8173C26.0472 9.88485 26.1467 10.0055 26.2105 10.0125C27.2 10.0975 28.1579 10.3246 29.1013 10.6297C29.1295 10.6405 29.1614 10.6405 29.2111 10.6438C29.3355 10.3528 29.4557 10.0622 29.5801 9.77463C29.7148 9.45545 29.995 9.31702 30.2859 9.42354C30.5769 9.53005 30.715 9.82065 30.6088 10.1435C30.5168 10.413 30.3995 10.6757 30.2896 10.9381C30.2399 11.0517 30.2648 11.1085 30.3783 11.1723C31.0096 11.5412 31.6409 11.9134 32.2618 12.3039C32.5064 12.4601 32.7228 12.662 32.9748 12.8643C33.2832 12.5592 33.5882 12.2578 33.8933 11.9561C34.1627 11.69 34.4218 11.4169 34.6987 11.1615C34.8052 11.062 34.8015 10.9733 34.7766 10.8386C34.7198 10.5228 34.656 10.2003 34.6808 9.88445C34.7235 9.3311 35.1845 8.94104 35.7486 8.91954C36.6816 8.88391 37.3448 9.35228 37.8555 10.083C38.1249 10.466 38.2741 10.9025 38.2351 11.3672C38.1605 12.2007 37.5649 12.6227 36.7027 12.481C36.6033 12.4631 36.5005 12.449 36.4118 12.4064C36.2062 12.3036 36.0499 12.3318 35.8833 12.5058C35.3548 13.0555 34.8156 13.5947 34.3012 14.1161C34.8902 15.0098 35.4825 15.9073 36.0923 16.8332C36.3265 16.7412 36.6171 16.6206 36.908 16.5033C37.1422 16.4112 37.3619 16.4112 37.5534 16.5953C37.8444 16.8755 37.7628 17.3294 37.3901 17.489C37.0992 17.6133 36.8086 17.7373 36.5176 17.8616C36.5035 17.8687 36.4965 17.8828 36.4786 17.9043C36.5993 18.3263 36.741 18.752 36.8335 19.1884C36.947 19.7062 37.0216 20.2347 37.1029 20.7598C37.1526 21.0756 37.1419 21.0756 37.454 21.0756C38.135 21.0756 38.8123 21.0686 39.4933 21.0793C39.6886 21.083 39.7914 21.0263 39.8834 20.8418C40.1317 20.3311 40.5043 19.9481 41.1215 19.9444C41.6462 19.9407 42.0011 20.2458 42.2635 20.6611C42.8168 21.5407 42.7244 22.8177 42.0612 23.6086C41.5576 24.2079 40.7099 24.222 40.2027 23.6264C40.0538 23.4527 39.9403 23.2467 39.83 23.0448C39.7662 22.9279 39.7024 22.8744 39.5639 22.8744C38.8228 22.8815 38.0813 22.8815 37.3401 22.8744C37.1839 22.8744 37.1379 22.9346 37.1275 23.073C37.0495 24.0379 36.8365 24.9777 36.5315 25.8966C36.4854 26.035 36.5244 26.0918 36.6484 26.1412C36.8859 26.2332 37.1201 26.3327 37.3543 26.4284C37.6734 26.5598 37.826 26.8682 37.7161 27.1521C37.6025 27.4464 37.2975 27.5778 36.9675 27.4572C36.6662 27.3473 36.3682 27.2159 36.1128 27.1131C35.5097 28.0424 34.9211 28.9506 34.3359 29.8513C34.8785 30.4047 35.4567 30.997 36.0457 31.5823C36.0917 31.6283 36.2052 31.632 36.2869 31.6212C36.592 31.593 36.897 31.5006 37.1984 31.5218C37.8757 31.5645 38.3051 32.1353 38.2413 32.8482C38.1418 33.969 37.1097 34.9978 35.9926 35.0936C35.2196 35.1611 34.6343 34.6326 34.6484 33.8555C34.6521 33.6143 34.7371 33.373 34.7761 33.1318C34.7902 33.0501 34.8043 32.9295 34.7583 32.8835C34.1801 32.2875 33.5915 31.7059 33.0166 31.1314C32.5093 31.4933 32.0272 31.8514 31.5268 32.1814C31.1861 32.4048 30.8247 32.5963 30.4591 32.7845C30.3103 32.8624 30.2958 32.9407 30.3563 33.0754C30.4558 33.3026 30.5515 33.5293 30.6402 33.7602C30.775 34.1079 30.6614 34.42 30.3671 34.5369C30.055 34.6576 29.7781 34.5262 29.6293 34.1788C29.5372 33.9661 29.4378 33.7568 29.3599 33.5405C29.2997 33.3631 29.2181 33.3349 29.0336 33.3842C28.271 33.5794 27.5049 33.7531 26.7386 33.9235C26.5753 33.9591 26.4016 33.9662 26.2313 33.9765C26.1036 33.9836 26.0576 34.0404 26.0576 34.1647C26.0576 34.9203 26.0505 35.6793 26.0646 36.435C26.0646 36.5199 26.1604 36.6372 26.2454 36.6869C26.5823 36.8855 26.9015 37.0841 27.0752 37.46C27.2986 37.9425 27.2207 38.4494 26.8447 38.8221C25.9971 39.6627 24.4045 39.6946 23.5175 38.8929C22.904 38.3396 22.943 37.4708 23.6062 36.9705C23.7305 36.8785 23.8545 36.7824 23.9963 36.726C24.1915 36.6514 24.2587 36.5415 24.2553 36.3288C24.2412 35.6408 24.2446 34.9561 24.2516 34.268C24.2553 34.0873 24.2267 33.9986 24.0104 33.977C23.0811 33.8776 22.1625 33.7076 21.2792 33.3918C21.1055 33.3316 21.0347 33.3847 20.9779 33.548C20.8962 33.7892 20.7934 34.0234 20.6906 34.2572C20.5663 34.5337 20.2686 34.6688 20.0025 34.5764C19.7331 34.4844 19.5735 34.2004 19.6619 33.9061C19.7468 33.6259 19.8675 33.3565 19.9847 33.0904C20.0449 32.9557 20.0237 32.8881 19.8853 32.821C19.1155 32.445 18.3848 32.0015 17.7253 31.4448C17.5761 31.3283 17.4273 31.2326 17.3067 31.1439L17.3064 31.1433ZM34.1725 21.9957C34.1903 16.9981 30.0614 12.9224 25.0816 12.951C20.1511 12.9758 16.104 17.0193 16.0758 21.9212C16.0438 26.9259 20.1088 31.0617 25.1595 31.0547C30.1253 31.0476 34.1795 26.9756 34.1724 21.9957H34.1725Z" fill="black"/>
<path d="M18.9063 22.3568C17.8137 22.339 16.9378 21.4382 16.9627 20.3564C16.9838 19.2356 17.8742 18.3771 18.9987 18.3983C20.0806 18.4161 20.9497 19.3239 20.9283 20.4132C20.9071 21.5196 20.0201 22.3747 18.9064 22.3568H18.9063Z" fill="black"/>
<path d="M26.6068 14.6031C27.7384 14.6139 28.5898 15.4827 28.5824 16.6143C28.5753 17.689 27.6709 18.5616 26.5782 18.5616C25.5921 18.5579 24.5778 17.7529 24.6202 16.4866C24.6595 15.4403 25.5324 14.5927 26.6068 14.6031Z" fill="black"/>
<path d="M23.1694 27.6564C23.1765 28.3976 22.609 28.9828 21.8749 28.9902C21.1052 28.9973 20.5199 28.4332 20.5092 27.6742C20.4984 26.9434 21.0945 26.33 21.8144 26.3262C22.5808 26.3228 23.1624 26.8903 23.1694 27.6563V27.6564Z" fill="black"/>
<path d="M25.4507 21.9987C25.4577 22.6337 24.9682 23.1373 24.3406 23.1444C23.6807 23.1515 23.1771 22.669 23.1701 22.0166C23.1593 21.3923 23.6704 20.8638 24.2909 20.8601C24.9471 20.8568 25.4437 21.3426 25.4507 21.9987Z" fill="black"/>
</svg>
